<svg xmlns="http://www.w3.org/2000/svg" width="36" height="36" viewBox="-6 0 101 103">
  <!-- Arc -->
  <g transform="translate(0.524 0.5)">
    <path d="M94.725,42.685H65.474a20.946,20.946,0,0,0-1.3-7.079A20.055,20.055,0,0,0,60.512,29.4a17.146,17.146,0,0,0-13.28-5.9,17.164,17.164,0,0,0-7.444,1.6,17.935,17.935,0,0,0-5.709,4.238,18.548,18.548,0,0,0-3.6,6.082,21.365,21.365,0,0,0-1.239,7.252L0,42.685A42.2,42.2,0,0,1,3.609,27.34,44.941,44.941,0,0,1,13.661,13.088,47.42,47.42,0,0,1,28.742,3.5,49.851,49.851,0,0,1,47.482,0,50.185,50.185,0,0,1,66.16,3.441,47.3,47.3,0,0,1,81.175,12.9,43.4,43.4,0,0,1,91.167,27.1a42.776,42.776,0,0,1,3.558,15.584Z" fill="#1a1a2e"/>
  </g>
  <!-- Blue V-leg -->
  <path d="M17.952.562H37.521L13.748,60.216H-5.821Z" transform="translate(20.114 42.587)" fill="#5caaff"/>
  <!-- Dark V-leg -->
  <path d="M13.123.571H-6.446L17.326,60.225H36.9Z" transform="translate(44.585 42.617)" fill="#1a1a2e"/>
</svg>
