<svg xmlns="http://www.w3.org/2000/svg" width="150" height="42" viewBox="921.476 993.723 367.991 102.842">
  <g id="Group_77" data-name="Group 77">
    <path id="Path_91" data-name="Path 91" d="M33.823,31.811h9.286L25.806-8.852h-8.19L.312,31.811H9.367l3.691-9.055H30.131ZM21.6,1.818l5.364,13.093H16.231ZM66.469-.374H78.754v-8.19H45.3v8.19H57.586V31.811h8.882Zm62.523,12v-.115a20.719,20.719,0,0,0-1.586-8.1,19.87,19.87,0,0,0-4.441-6.575,21.371,21.371,0,0,0-6.777-4.441,22.013,22.013,0,0,0-8.594-1.644A22.227,22.227,0,0,0,98.97-7.612,20.652,20.652,0,0,0,87.694,3.52a20.4,20.4,0,0,0-1.615,8.1v.115a20.719,20.719,0,0,0,1.586,8.1,19.87,19.87,0,0,0,4.441,6.575,21.371,21.371,0,0,0,6.777,4.441,22.013,22.013,0,0,0,8.594,1.644,22.227,22.227,0,0,0,8.623-1.644,20.652,20.652,0,0,0,11.276-11.132A20.4,20.4,0,0,0,128.991,11.623Zm-9.286,0v.115a13.222,13.222,0,0,1-.894,4.874,12.778,12.778,0,0,1-2.48,4.009,11.207,11.207,0,0,1-3.836,2.711,12.135,12.135,0,0,1-4.9.981,11.78,11.78,0,0,1-4.931-1.009,12.175,12.175,0,0,1-6.4-6.777,13.449,13.449,0,0,1-.894-4.9v-.115a13.222,13.222,0,0,1,.894-4.874,12.778,12.778,0,0,1,2.48-4.009,11.278,11.278,0,0,1,3.807-2.711,12.078,12.078,0,0,1,4.931-.981,11.837,11.837,0,0,1,4.9,1.009,12.1,12.1,0,0,1,6.431,6.777A13.449,13.449,0,0,1,119.705,11.623Zm21.225,20.187h29.012V23.736h-20.13v-32.3h-8.882Zm39.74,0h29.012V23.736h-20.13v-32.3h-8.882Zm69.79,0h9.286l-17.3-40.663h-8.19l-17.3,40.663h9.055l3.691-9.055H246.77ZM238.233,1.818,243.6,14.911H232.869Z" transform="translate(1029.719 1047.057)" fill="#1a1a2e"/>
    <g id="Group_73" data-name="Group 73" transform="translate(922 994.223)">
      <path id="Subtraction_2" data-name="Subtraction 2" d="M94.725,42.685H65.474a20.946,20.946,0,0,0-1.3-7.079A20.055,20.055,0,0,0,60.512,29.4a17.146,17.146,0,0,0-13.28-5.9,17.164,17.164,0,0,0-7.444,1.6,17.935,17.935,0,0,0-5.709,4.238,18.548,18.548,0,0,0-3.6,6.082,21.365,21.365,0,0,0-1.239,7.252L0,42.685A42.2,42.2,0,0,1,3.609,27.34,44.941,44.941,0,0,1,13.661,13.088,47.42,47.42,0,0,1,28.742,3.5,49.851,49.851,0,0,1,47.482,0,50.185,50.185,0,0,1,66.16,3.441,47.3,47.3,0,0,1,81.175,12.9,43.4,43.4,0,0,1,91.167,27.1a42.776,42.776,0,0,1,3.558,15.584Z" fill="#1a1a2e" stroke="rgba(0,0,0,0)" stroke-miterlimit="10" stroke-width="1"/>
    </g>
    <path id="Path_92" data-name="Path 92" d="M17.952.562H37.521L13.748,60.216H-5.821Z" transform="translate(941.59 1036.31)" fill="#5caaff"/>
    <path id="Path_93" data-name="Path 93" d="M13.123.571H-6.446L17.326,60.225H36.9Z" transform="translate(966.061 1036.34)" fill="#1a1a2e"/>
  </g>
</svg>
